<svg xmlns="http://www.w3.org/2000/svg" viewBox="0 0 6.35 6.35" id="Clock">
  <path fill-rule="evenodd" d="M12.004.998C5.94.998.996 5.935.996 11.998s4.945 11.006 11.008 11.006c6.063 0 10.998-4.943 10.998-11.006 0-6.063-4.935-11-10.998-11zm0 2a8.983 8.983 0 0 1 8.998 9 8.988 8.988 0 0 1-8.998 9.006 8.997 8.997 0 0 1-9.008-9.006c0-4.982 4.026-9 9.008-9zm-.016 1.986a1 1 0 0 0-.99 1.02v5.994a1 1 0 0 0 1.006 1.004h5.992a1 1 0 0 0 0-2.002H13V6.004a1 1 0 0 0-1.012-1.02z" color="#000" font-family="sans-serif" font-weight="400" overflow="visible" paint-order="stroke fill markers" style="line-height:normal;font-variant-ligatures:normal;font-variant-position:normal;font-variant-caps:normal;font-variant-numeric:normal;font-variant-alternates:normal;font-feature-settings:normal;text-indent:0;text-align:start;text-decoration-line:none;text-decoration-style:solid;text-decoration-color:#000;text-transform:none;text-orientation:mixed;shape-padding:0;isolation:auto;mix-blend-mode:normal" transform="scale(.26458)" fill="#a0aec0" class="color000000 svgShape"></path>
</svg>
