<svg xmlns="http://www.w3.org/2000/svg" viewBox="0 0 38.5 38.5" id="discord">
  <defs>
    <linearGradient id="a" x1="5.65" x2="32.85" y1="5.65" y2="32.85" gradientUnits="userSpaceOnUse">
      <stop offset="0" stop-color="#566af6"></stop>
      <stop offset="1" stop-color="#2c44b7"></stop>
    </linearGradient>
  </defs>
  <g style="isolation:isolate">
    <g>
      <g>
        <g>
          <path fill="url(#a)" d="M38.5,19.25c0,.47-.02.95-.06,1.41-.34,4.74-2.41,9.01-5.59,12.19-3.49,3.48-8.31,5.65-13.6,5.65-.34,0-.68,0-1.02-.03C8.11,37.94,0,29.5,0,19.25c0-5.3,2.16-10.11,5.65-13.6C9.14,2.17,13.96,0,19.25,0s10.11,2.17,13.6,5.65c3.49,3.49,5.65,8.3,5.65,13.6Z"></path>
          <path fill="#5569f5" d="M38.44,20.66c-.34,4.74-2.41,9.01-5.59,12.19-3.49,3.48-8.31,5.65-13.6,5.65-.34,0-.68,0-1.02-.03-4.13-4.09-8.19-8.23-12.34-12.31-.48-5.03.47-10.14,3.98-15.37,1.77-.82,3.64-1.4,5.57-1.72.43.51.9.95,1.38,1.39,1.83-.22,3.68-.2,5.51.07.19-.46.47-1.04.71-1.46,1.92.32,3.79.9,5.56,1.71,3.25,3.33,6.59,6.56,9.84,9.88Z" style="mix-blend-mode:multiply"></path>
          <path fill="#fff" d="M28.6,10.7c-1.77-.81-3.64-1.39-5.56-1.72-.24.43-.52,1-.71,1.46-2.04-.3-4.12-.3-6.16,0-.22-.5-.46-.99-.73-1.46-1.92.33-3.79.91-5.56,1.73-3.51,5.23-4.46,10.34-3.99,15.37,2.06,1.53,4.37,2.7,6.82,3.44.55-.75,1.04-1.54,1.46-2.37-.8-.3-1.57-.67-2.3-1.1.19-.14.38-.29.56-.44,4.32,2.04,9.33,2.04,13.64,0,.18.15.37.3.56.44-.73.44-1.51.8-2.3,1.1.42.83.91,1.62,1.46,2.37,2.46-.75,4.76-1.91,6.82-3.44.56-5.83-.96-10.89-4.01-15.38ZM14.77,22.99c-1.33,0-2.42-1.22-2.42-2.71s1.07-2.72,2.42-2.72,2.44,1.22,2.42,2.72c-.01,1.5-1.07,2.72-2.42,2.72ZM23.72,22.99c-1.33,0-2.42-1.22-2.42-2.71s1.07-2.72,2.42-2.72,2.44,1.22,2.42,2.72c-.01,1.5-1.07,2.72-2.42,2.72Z"></path>
        </g>
      </g>
    </g>
  </g>
</svg>
